<?xml version="1.0" standalone="no"?>
<!DOCTYPE svg PUBLIC "-//W3C//DTD SVG 20010904//EN"
 "http://www.w3.org/TR/2001/REC-SVG-20010904/DTD/svg10.dtd">
<svg version="1.0" xmlns="http://www.w3.org/2000/svg"
 width="1024.000000pt" height="1024.000000pt" viewBox="0 0 1024.000000 1024.000000"
 preserveAspectRatio="xMidYMid meet">
<metadata>
Created by potrace 1.16, written by Peter Selinger 2001-2019
</metadata>
<g transform="translate(0.000000,1024.000000) scale(0.100000,-0.100000)"
fill="#000000" stroke="none">
<path d="M5075 9321 c-34 -15 -66 -56 -72 -94 -6 -37 12 -97 28 -97 5 0 13 -8
18 -19 8 -14 5 -35 -10 -79 -21 -63 -32 -72 -96 -72 -27 0 -33 5 -43 36 -15
45 -50 60 -102 44 -46 -13 -62 -41 -54 -89 5 -35 3 -39 -42 -73 -25 -20 -47
-36 -48 -35 -1 1 -31 44 -68 95 l-67 93 21 29 c28 39 36 92 20 130 -30 72
-150 86 -200 23 -14 -18 -20 -40 -20 -78 0 -48 3 -56 33 -79 17 -15 38 -31 45
-37 7 -5 12 -33 12 -63 0 -50 -1 -53 -22 -49 -23 4 -113 -49 -261 -154 -82
-57 -254 -225 -312 -304 l-41 -56 -16 62 c-48 180 -156 307 -333 390 -181 85
-397 83 -572 -6 -91 -46 -170 -115 -224 -194 -68 -99 -91 -169 -97 -291 -9
-191 30 -282 191 -453 60 -64 124 -142 143 -175 48 -81 84 -193 84 -259 0 -62
-14 -80 -56 -75 -25 3 -32 13 -62 83 -114 265 -202 418 -302 521 -74 76 -92
73 -42 -7 43 -67 142 -255 142 -268 0 -21 -91 -10 -134 17 -22 13 -53 30 -70
38 -19 8 -24 13 -13 14 9 0 17 4 17 9 0 16 -63 57 -106 69 -50 14 -139 16
-163 2 -16 -8 -19 -3 -25 48 -17 146 -130 216 -211 132 -23 -24 -30 -41 -33
-90 -4 -49 0 -68 21 -107 25 -48 25 -49 7 -84 -54 -105 -48 -269 16 -398 19
-38 34 -72 34 -75 0 -17 -38 -2 -68 27 -33 31 -34 31 -27 7 23 -79 134 -205
263 -299 40 -29 72 -57 72 -62 0 -5 -20 -49 -44 -97 -24 -48 -56 -130 -71
-182 -15 -52 -41 -129 -58 -170 -25 -63 -30 -90 -31 -165 -1 -79 2 -97 27
-149 15 -33 48 -83 72 -112 25 -29 45 -56 45 -61 0 -4 -5 0 -11 9 -5 10 -19
23 -30 29 -19 10 -20 8 -15 -13 3 -12 3 -17 0 -10 -3 6 -10 12 -15 12 -6 0 -7
-5 -3 -11 4 -7 -1 -7 -16 1 -12 6 -23 10 -25 8 -7 -7 -9 -2457 -3 -2464 5 -4
9 4 9 17 1 17 3 19 6 6 2 -9 9 -14 15 -11 6 4 9 1 6 -7 -3 -8 1 -27 10 -43 14
-29 14 -30 -29 -68 -24 -20 -47 -38 -50 -38 -17 0 -18 -34 -2 -47 17 -13 16
-14 -4 -8 -13 4 -23 2 -23 -3 0 -5 -25 -30 -56 -56 -31 -25 -65 -58 -77 -72
-20 -26 -20 -27 -2 -40 10 -7 22 -15 28 -17 5 -1 7 -13 2 -26 -5 -18 -12 -21
-31 -17 -14 4 -24 2 -24 -4 0 -6 4 -9 9 -5 5 3 12 1 16 -5 3 -5 2 -10 -3 -10
-4 0 -19 -19 -32 -42 -21 -38 -24 -40 -37 -23 -7 11 -13 14 -13 9 0 -6 5 -15
10 -20 7 -7 1 -32 -21 -77 -46 -100 -59 -158 -66 -307 -7 -155 3 -225 48 -363
56 -169 165 -331 307 -460 23 -21 40 -42 37 -47 -3 -5 6 -17 20 -28 l25 -20
-24 2 c-13 0 -22 6 -19 11 2 6 -15 31 -38 55 -22 25 -38 40 -35 33 4 -6 1 -15
-5 -19 -7 -4 -9 -3 -6 3 8 14 -61 105 -74 98 -5 -4 -9 -14 -9 -23 0 -15 -2
-15 -10 -2 -9 13 -13 12 -29 -8 -21 -25 -37 -28 -44 -9 -4 8 -6 9 -6 0 -1 -6
6 -18 14 -27 8 -8 15 -19 15 -25 0 -6 4 -11 9 -11 5 0 20 -17 32 -37 45 -74
215 -227 316 -284 172 -98 270 -129 412 -129 196 0 370 63 539 195 7 5 32 27
54 47 22 21 44 38 48 38 4 0 14 -9 22 -21 l13 -21 37 23 c21 13 37 29 38 34 0
6 -11 26 -24 46 -17 24 -21 40 -15 50 6 10 9 10 9 2 0 -7 5 -13 11 -13 5 0 7
6 3 13 -5 7 0 6 10 -3 18 -14 18 -15 -2 -20 -16 -4 -19 -9 -12 -20 6 -10 10
-11 10 -2 0 30 32 7 66 -50 21 -35 55 -86 75 -114 48 -65 219 -254 295 -325
31 -30 69 -65 83 -79 32 -31 114 -92 201 -147 92 -60 389 -209 452 -228 60
-17 93 -35 68 -35 -35 0 -342 80 -390 102 -14 7 -29 14 -35 16 -5 3 -3 -2 5
-10 8 -8 35 -23 60 -33 25 -10 52 -24 60 -30 39 -31 270 -100 430 -129 332
-61 783 -27 1077 82 39 14 69 30 66 35 -3 5 4 6 16 2 11 -3 21 -2 21 2 0 5 25
20 56 32 41 17 53 26 44 35 -8 8 -13 8 -18 0 -10 -17 -155 -60 -258 -78 -123
-22 -141 -19 -60 10 108 37 371 172 476 242 52 36 97 67 100 71 3 4 43 39 90
77 87 72 166 153 235 240 22 27 59 70 82 96 28 30 43 57 43 73 0 15 4 24 10
20 13 -8 13 5 0 25 -8 12 -10 12 -10 1 0 -8 -3 -12 -6 -8 -3 3 -3 11 1 17 5 8
11 7 23 -2 14 -11 14 -11 5 6 -8 15 -6 27 9 53 21 34 35 45 24 17 -3 -9 -2
-12 5 -9 5 4 7 15 4 26 -8 26 5 24 36 -5 24 -22 28 -23 43 -8 15 15 15 14 4
-16 -11 -28 -10 -34 12 -57 31 -33 46 -32 70 8 12 19 20 25 20 16 0 -21 87
-101 160 -147 62 -40 185 -92 280 -118 48 -13 100 -18 200 -18 130 0 139 2
233 36 53 20 112 45 130 56 17 11 55 34 82 50 99 60 227 188 312 315 l31 45
-24 23 c-21 20 -27 21 -35 9 -9 -12 -10 -12 -5 3 6 19 -10 24 -17 5 -4 -10 -6
-10 -6 -1 -1 6 4 15 9 18 6 3 10 11 10 17 0 7 -13 -1 -30 -17 -34 -33 -41 -26
-9 8 34 35 124 176 157 247 91 195 114 408 66 623 -18 84 -87 232 -139 300
-20 26 -33 52 -29 59 5 7 3 8 -6 3 -8 -5 -11 -3 -8 6 2 7 19 17 37 22 l34 8
-29 31 c-35 36 -110 82 -123 74 -5 -3 -12 -22 -15 -41 -7 -38 -17 -43 -35 -21
-9 11 -8 15 5 20 11 4 15 14 11 33 -3 15 -1 38 5 52 9 26 9 26 -10 6 -11 -11
-17 -24 -14 -29 3 -5 0 -6 -6 -2 -16 10 4 47 29 53 27 8 10 33 -50 74 -35 23
-49 39 -45 49 4 8 9 34 11 57 3 24 9 40 14 37 5 -3 9 0 9 6 0 6 5 8 10 5 7 -4
10 164 10 497 0 277 1 821 1 1209 1 487 -2 712 -10 726 -5 11 -8 23 -5 26 3 3
1 14 -4 24 -8 13 -5 29 8 58 48 102 50 231 3 340 -14 33 -40 107 -57 165 -18
58 -49 144 -69 192 -21 48 -37 90 -37 95 0 11 83 63 89 57 3 -3 -1 -9 -9 -14
-12 -8 -11 -10 6 -10 22 0 76 41 167 129 63 61 111 130 121 174 l7 28 -44 -25
c-24 -14 -48 -26 -54 -26 -6 0 6 39 25 88 45 111 53 211 27 341 -15 70 -16 99
-8 140 13 66 7 94 -27 131 -35 38 -85 40 -161 7 -30 -13 -94 -34 -144 -47
-105 -27 -145 -45 -199 -92 -45 -39 -45 -68 1 -68 l28 -1 -26 -22 c-54 -46
-65 -52 -84 -51 -11 1 -41 2 -68 3 -46 1 -47 2 -41 29 8 34 74 167 121 245 38
63 38 79 -2 53 -91 -60 -220 -271 -312 -511 -19 -49 -41 -100 -49 -112 -17
-27 -65 -31 -84 -8 -35 42 -16 175 42 295 24 49 61 95 153 190 67 69 134 144
148 167 45 71 67 154 67 245 0 159 -57 292 -173 409 -122 122 -240 179 -412
201 -248 31 -509 -86 -645 -292 -35 -52 -38 -80 -11 -104 18 -17 21 -15 64 31
24 26 57 63 73 82 41 50 166 128 243 152 91 29 244 36 335 15 267 -63 463
-318 425 -554 -9 -63 -47 -145 -84 -187 -30 -34 -30 -28 6 70 25 72 28 190 5
268 -34 116 -144 237 -270 296 -153 72 -317 69 -481 -9 -179 -86 -274 -236
-263 -420 3 -44 4 -79 2 -78 -1 2 -19 48 -40 103 -49 133 -107 218 -237 347
-132 131 -304 250 -409 282 -28 8 -25 89 4 116 12 11 25 20 30 20 13 0 38 57
38 87 0 34 -31 88 -61 103 -13 7 -43 10 -72 7 -40 -3 -55 -10 -73 -32 -39 -49
-38 -117 1 -159 l23 -25 -55 -88 c-31 -48 -57 -89 -58 -91 -1 -1 -28 13 -60
33 -33 19 -63 35 -68 35 -5 0 -7 14 -3 31 3 17 3 41 0 54 -12 49 -117 55 -135
9 -8 -22 -62 -64 -82 -64 -11 0 -47 84 -54 127 -5 27 -2 39 10 48 19 13 37 57
37 87 0 29 -27 81 -50 95 -26 17 -91 25 -115 14z m-639 -498 c1 -12 11 -38 22
-58 12 -19 35 -72 51 -118 16 -45 38 -106 50 -135 31 -79 25 -85 -14 -13 -35
65 -54 91 -41 56 19 -49 33 -105 26 -100 -4 2 -14 24 -22 47 -21 58 -108 334
-108 343 0 18 35 -3 36 -22z m493 -10 c-1 -21 5 -53 15 -71 9 -18 34 -82 56
-142 30 -83 37 -116 31 -133 -7 -17 -4 -36 10 -67 11 -24 17 -45 15 -47 -9
-10 -44 8 -49 25 -3 9 -26 67 -51 127 l-46 110 -1 -50 c-3 -208 -3 -206 -24
-203 -15 2 -23 17 -35 70 -15 66 -30 98 -30 64 0 -40 -61 -67 -101 -46 -9 5
-34 33 -55 62 -21 29 -41 55 -44 58 -9 7 -116 163 -124 180 -11 23 189 -186
215 -225 13 -19 29 -35 35 -35 18 0 38 37 73 135 41 115 91 225 103 225 5 0 8
-17 7 -37z m387 -45 c31 -61 76 -189 69 -196 -2 -3 -8 6 -13 19 -19 52 -21 52
-16 4 3 -27 8 -63 10 -80 4 -22 3 -26 -5 -15 -7 10 -10 0 -9 -37 0 -67 -9 -93
-32 -93 -17 0 -19 5 -14 43 5 33 3 45 -8 49 -12 5 -13 20 -6 84 13 119 6 118
-34 -2 -49 -148 -66 -184 -83 -184 -13 0 -14 4 -4 22 7 13 9 41 5 74 -7 57 13
119 84 262 18 38 28 72 25 83 -12 36 5 19 31 -33z m-2035 22 c30 -5 92 -28
137 -51 239 -117 340 -371 237 -597 -14 -31 -29 -59 -33 -62 -5 -3 -18 -20
-31 -37 -49 -71 -206 -164 -324 -194 -61 -15 -197 -7 -262 16 -98 34 -141 60
-205 125 -193 193 -198 469 -12 657 77 78 159 120 287 147 39 8 153 6 206 -4z
m1099 -107 c0 -13 -4 -23 -10 -23 -5 0 -7 -6 -5 -12 3 -8 -17 -26 -46 -43 -54
-32 -122 -104 -139 -149 -5 -15 -10 -44 -10 -64 0 -33 -8 -46 -64 -101 -42
-41 -68 -61 -77 -56 -8 5 -10 4 -5 -3 4 -7 -3 -22 -14 -34 -12 -13 -30 -36
-40 -53 -23 -37 -53 -152 -44 -167 4 -7 3 -8 -4 -4 -15 9 -15 -7 -1 -21 14
-14 5 -43 -12 -43 -16 0 -4 116 17 165 8 21 13 40 10 43 -8 7 -46 -79 -46
-104 0 -26 -27 -116 -48 -164 -13 -28 -16 -77 -16 -250 -1 -204 0 -220 27
-319 30 -116 102 -276 167 -371 46 -67 223 -246 307 -308 122 -92 302 -165
498 -202 61 -12 138 -27 172 -35 91 -22 156 -18 305 15 372 84 592 200 769
406 44 52 88 94 96 94 11 0 14 7 11 25 -3 13 -1 22 3 19 5 -3 9 3 10 13 0 22
88 194 88 174 1 -24 11 -5 16 28 2 18 8 38 14 45 18 21 44 139 43 196 0 42 1
48 7 25 7 -30 7 -29 19 17 24 92 11 334 -24 458 -26 91 -104 279 -127 305 -12
13 -33 43 -46 67 -20 34 -21 40 -6 28 26 -21 16 -3 -32 60 -23 30 -66 87 -95
126 -29 39 -80 95 -113 124 -33 30 -66 62 -74 73 -25 35 78 -27 154 -91 137
-118 229 -237 319 -412 73 -143 97 -213 121 -360 31 -182 3 -489 -59 -654 -27
-72 -102 -220 -120 -238 -7 -7 -29 -40 -50 -73 -66 -104 -87 -129 -98 -114 -7
10 -8 9 -4 -5 7 -20 -49 -80 -169 -181 -169 -143 -504 -267 -725 -269 -58 -1
-107 -4 -110 -7 -8 -9 -81 2 -75 11 3 5 -11 4 -31 -2 -113 -31 -499 85 -672
203 -87 59 -234 187 -228 198 2 3 -8 17 -22 31 -13 14 -21 18 -17 10 15 -28
-52 44 -103 112 -114 151 -210 364 -247 549 -9 41 -18 151 -22 244 -5 139 -3
185 11 254 65 319 211 567 441 746 44 34 107 79 140 99 l60 36 12 -23 c7 -12
12 -32 13 -44z m2710 -24 c97 -15 182 -59 249 -128 87 -88 106 -134 106 -256
0 -84 -3 -106 -22 -140 l-22 -40 -1 46 c0 57 -25 141 -57 196 -37 63 -124 138
-191 164 -122 46 -283 32 -372 -32 -23 -17 -46 -27 -52 -23 -7 4 -8 3 -4 -5 4
-6 0 -18 -8 -27 -9 -8 -16 -12 -16 -7 0 15 -47 -62 -64 -107 -10 -25 -21 -65
-25 -90 l-7 -45 -12 40 c-40 137 16 294 135 376 57 40 129 68 202 78 80 12 89
12 161 0z m-105 -195 c-74 -18 -88 -30 -29 -25 25 1 61 0 82 -4 37 -8 36 -8
-31 -22 -149 -31 -228 -80 -267 -165 -22 -49 -25 -82 -9 -127 17 -49 5 -47
-25 3 -47 80 -31 178 44 258 61 67 132 97 225 97 l70 -1 -60 -14z m-1034 -65
c11 -23 19 -57 18 -86 -1 -65 -26 -265 -29 -228 -2 30 -2 30 -10 5 -4 -14 -6
-34 -3 -45 5 -26 -53 -119 -69 -109 -6 4 -8 3 -5 -3 4 -6 -3 -19 -15 -29 -21
-19 -21 -19 -14 1 4 14 -1 10 -18 -10 -13 -16 -27 -27 -31 -24 -5 6 17 35 55
72 7 7 30 29 51 50 21 20 39 42 39 48 0 6 -17 -6 -38 -27 -78 -80 -114 -110
-106 -89 4 11 23 41 41 66 34 48 63 109 62 131 0 7 -8 -5 -18 -27 -27 -60
-117 -196 -124 -188 -14 13 -6 32 34 79 22 27 55 76 72 109 31 58 32 65 32
180 0 66 -3 122 -7 125 -4 3 3 17 15 32 26 31 38 25 68 -33z m-1238 -40 c190
-36 402 -51 562 -39 263 21 261 20 230 10 -120 -40 -584 -50 -741 -16 -90 20
-206 55 -218 67 -14 13 -13 13 167 -22z m67 -96 c75 -14 157 -17 390 -18 162
0 279 -1 260 -3 -19 -2 -41 -9 -49 -15 -10 -9 -94 -12 -288 -12 l-273 0 6 -45
c8 -58 19 -70 61 -70 l35 0 -7 56 c-6 53 -6 55 13 45 20 -11 36 -55 30 -82 -2
-12 25 -14 152 -14 l155 0 0 38 c0 29 4 37 18 37 13 0 17 -9 17 -40 0 -34 3
-40 23 -41 12 -1 -12 -7 -53 -15 -83 -14 -225 -17 -372 -7 -109 7 -102 1 -113
94 l-6 56 -83 13 c-45 7 -97 13 -114 14 -26 1 -34 7 -42 30 -5 16 -10 32 -10
36 0 4 35 -3 78 -16 42 -14 120 -32 172 -41z m-155 -48 c32 -31 35 -90 5 -98
-34 -9 -22 -24 28 -37 106 -28 226 -39 427 -41 121 0 199 -4 185 -9 -14 -4
-41 -9 -60 -9 -23 -1 -31 -4 -22 -10 22 -14 -32 -22 -136 -22 -111 1 -199 11
-182 21 6 4 -12 10 -42 14 -66 8 -214 54 -227 70 -6 7 -17 43 -25 79 -13 64
-13 67 6 67 10 0 30 -11 43 -25z m1507 -114 c1 -17 7 -31 13 -31 5 0 2 -5 -7
-11 -25 -14 -23 -28 2 -22 20 5 20 4 6 -28 -7 -19 -22 -54 -32 -78 -26 -63
-72 -124 -89 -117 -8 3 -20 -3 -27 -12 -7 -10 -35 -32 -63 -50 -27 -17 -55
-36 -61 -41 -15 -12 -54 -3 -54 13 0 6 41 47 91 91 50 44 117 109 148 145 50
57 56 68 50 95 -4 17 -7 53 -7 80 -1 49 -1 49 13 24 8 -15 16 -41 17 -58z
m-1585 -54 c9 -9 47 -26 85 -37 37 -12 68 -23 68 -26 0 -3 -8 -3 -17 0 -10 2
-34 7 -53 11 -26 4 -31 3 -19 -4 9 -6 25 -12 35 -14 11 -1 24 -6 29 -9 6 -4
17 -3 25 3 25 15 33 10 13 -8 -10 -10 -14 -15 -9 -10 18 13 29 7 16 -8 -21
-25 -5 -27 26 -3 l29 23 -18 -28 c-14 -21 -15 -27 -3 -27 7 0 19 7 26 15 7 9
15 13 17 11 3 -3 -15 -31 -40 -64 -58 -75 -85 -127 -92 -177 -3 -22 -8 -46
-11 -54 -2 -8 1 -18 8 -23 11 -6 10 -8 0 -8 -7 0 -11 -4 -8 -9 7 -11 -71 -31
-122 -31 -68 0 -176 48 -114 51 10 0 12 3 4 6 -7 2 -21 25 -33 49 -12 28 -24
42 -31 38 -8 -5 -9 -1 -4 12 4 10 4 15 0 11 -4 -3 -20 5 -36 18 -16 14 -34 25
-39 25 -5 0 -9 8 -10 18 0 10 -3 12 -6 5 -8 -21 -43 4 -42 30 1 34 25 92 37
90 7 -2 9 4 5 14 -5 12 -3 14 7 8 9 -6 11 -4 5 4 -16 26 125 144 198 166 l42
12 8 -31 c5 -17 16 -39 24 -49z m1104 -109 c63 -46 108 -172 112 -305 2 -102
-22 -254 -34 -213 -7 24 -7 24 -8 2 -1 -33 -36 -97 -78 -142 -35 -40 -71 -54
-59 -25 5 13 2 14 -15 5 -20 -11 -20 -11 -4 17 9 15 33 50 55 77 31 40 41 63
51 120 25 147 -8 371 -67 462 -15 22 -15 24 0 24 9 0 31 -10 47 -22z m1047
-17 c48 -33 127 -69 189 -85 129 -34 264 -14 403 60 l85 45 -35 -35 c-46 -49
-98 -72 -205 -91 -97 -18 -193 -15 -299 9 -31 7 -56 10 -56 7 0 -4 14 -24 32
-45 29 -35 30 -38 9 -31 -20 6 -22 4 -16 -17 15 -52 16 -58 10 -58 -3 0 -10
12 -16 26 -17 46 -19 20 -4 -41 9 -32 13 -60 11 -62 -3 -3 -14 12 -26 34 l-21
38 4 -37 c1 -21 -1 -38 -6 -38 -16 0 -49 92 -73 206 -32 151 -32 148 14 115z
m-1169 -29 c43 -45 57 -85 73 -208 16 -126 -1 -222 -47 -263 -29 -25 -169 -70
-181 -58 -4 4 29 34 127 117 107 90 99 236 -17 325 -42 31 -54 35 -106 35 -37
0 -57 4 -53 10 8 13 -5 13 -25 0 -11 -7 -19 -2 -32 23 -22 41 -22 47 0 47 14
0 15 -2 2 -10 -24 -16 50 -12 85 5 17 7 54 14 84 14 50 1 57 -2 90 -37z m-422
-12 c65 -19 75 -10 20 15 -25 11 -26 13 -7 9 87 -20 116 -57 124 -156 3 -44 2
-47 -5 -18 -5 24 -7 4 -4 -60 2 -65 1 -87 -6 -70 -7 21 -8 19 -5 -12 4 -28 -3
-53 -27 -100 -42 -82 -90 -120 -163 -128 -30 -3 -57 -3 -60 2 -3 4 -15 8 -27
9 -12 0 -16 3 -9 6 8 3 -4 13 -28 25 -47 24 -70 53 -127 167 -36 69 -43 93
-43 140 0 62 10 81 83 158 l38 40 92 -4 c51 -3 120 -13 154 -23z m-2807 -95
c-14 -8 -21 -14 -17 -15 5 0 2 -6 -6 -14 -8 -8 -22 -14 -32 -13 -10 1 -20 -5
-23 -13 -5 -13 -3 -13 12 -1 14 12 16 12 11 -1 -5 -12 9 -15 84 -14 75 1 94
-2 117 -20 33 -24 44 -47 18 -37 -12 4 -15 3 -10 -5 4 -7 1 -12 -9 -12 -9 0
-14 4 -11 9 6 10 -75 21 -149 21 -43 -1 -48 -2 -33 -14 10 -7 16 -22 13 -35
-2 -14 0 -19 7 -15 7 5 9 1 5 -9 -4 -10 -2 -16 5 -14 6 1 13 -4 16 -12 3 -9 0
-11 -8 -6 -9 5 -11 4 -6 -4 4 -6 11 -9 16 -6 5 3 11 1 15 -5 3 -5 2 -10 -3
-10 -6 0 -8 -9 -5 -20 3 -11 9 -20 14 -20 4 0 13 -19 20 -42 6 -24 15 -48 20
-54 5 -6 18 -38 29 -70 27 -80 9 -53 -84 125 -44 83 -99 174 -123 203 -32 37
-43 58 -41 77 4 36 57 61 128 61 53 -1 54 -1 30 -15z m5834 -1 c45 -17 92
-218 65 -277 -9 -21 -15 -24 -26 -16 -10 9 -13 8 -13 -5 0 -23 -17 -20 -31 6
-19 35 -22 5 -5 -37 18 -43 21 -69 6 -60 -5 3 -10 -2 -10 -11 0 -11 -13 2 -30
29 -33 52 -49 63 -25 17 22 -42 20 -53 -6 -39 -20 10 -21 9 -16 -11 4 -17 3
-20 -6 -11 -17 17 -27 13 -27 -11 0 -13 -7 -32 -16 -43 -12 -17 -16 -17 -24
-6 -7 12 -11 12 -24 2 -9 -8 -16 -19 -16 -25 0 -6 -9 -17 -21 -24 -19 -12 -20
-11 -14 10 3 13 51 113 106 222 54 109 98 201 96 203 -2 1 -18 -19 -36 -46
-17 -28 -57 -85 -88 -128 -31 -43 -74 -107 -96 -143 -21 -36 -36 -54 -32 -40
4 14 23 52 42 85 45 76 45 75 40 75 -16 0 -112 -149 -124 -192 -20 -66 -33
-47 -33 49 0 67 2 74 31 102 37 37 25 40 -25 6 -47 -32 -50 -31 -32 3 8 16 33
41 55 55 23 15 41 30 41 32 0 8 -62 -25 -83 -43 -62 -54 7 90 72 151 46 43
122 77 174 77 13 0 17 5 13 16 -3 9 -4 20 0 25 6 10 94 12 118 3z m-2654 -36
c28 -46 35 -93 21 -139 -13 -42 -60 -103 -95 -121 -19 -10 -20 -10 -7 8 7 10
0 4 -16 -14 l-30 -33 -6 63 c-3 34 -2 65 2 68 10 7 6 40 -11 80 -8 19 -14 45
-13 57 1 12 -2 20 -7 17 -9 -6 -10 8 -2 30 5 12 21 16 75 16 67 0 70 -1 89
-32z m-3356 -53 c40 -19 106 -116 150 -222 84 -198 61 -206 -35 -13 -28 56
-38 69 -39 50 l-1 -25 -13 25 c-9 16 -11 31 -5 41 7 14 5 16 -10 12 -20 -5
-71 -99 -71 -131 0 -15 -2 -15 -10 -2 -15 23 0 91 27 124 38 46 15 45 -28 -1
-21 -23 -39 -52 -39 -65 0 -29 -16 -55 -27 -44 -4 4 -7 27 -6 52 2 56 33 100
87 125 49 22 28 25 -37 5 -42 -13 -73 -7 -47 9 5 3 10 11 10 17 0 7 -6 6 -15
-2 -24 -20 -19 10 7 37 25 27 57 29 102 8z m4079 -45 c3 -11 1 -18 -4 -15 -4
3 -15 -7 -23 -22 -8 -15 -30 -40 -50 -55 -35 -28 -60 -38 -38 -16 7 7 12 17
12 23 0 5 -10 -3 -23 -18 -22 -28 -26 -29 -94 -25 -39 1 -69 0 -66 -4 2 -5 16
-8 31 -8 15 0 34 -5 42 -11 11 -7 3 -8 -30 -4 -64 9 -77 14 -84 30 -4 11 2 15
19 15 36 0 31 16 -7 25 -29 6 -19 10 77 32 83 19 198 55 231 72 1 1 4 -8 7
-19z m-936 -252 c-10 -156 -17 -173 -80 -196 -71 -26 -195 -48 -207 -36 -5 5
-10 27 -12 49 -2 22 -7 43 -12 46 -5 4 -6 14 -3 23 5 12 20 16 60 16 70 0 143
22 169 52 32 36 67 94 74 122 13 52 17 23 11 -76z m-662 77 c-40 -19 -26 -18
47 1 33 8 63 13 66 10 3 -3 -1 -6 -8 -6 -9 0 -8 -5 5 -14 16 -12 11 -15 -52
-35 -39 -11 -76 -21 -82 -21 -22 0 -107 -33 -124 -48 -10 -9 -15 -22 -12 -29
2 -8 1 -12 -4 -9 -5 3 -21 -13 -37 -37 -57 -84 -99 -127 -168 -174 -39 -26
-77 -53 -84 -60 -10 -10 -17 -8 -32 7 -20 20 -26 40 -14 40 4 0 13 -8 20 -17
12 -16 13 -15 4 10 -9 26 -6 30 63 81 40 29 90 75 111 102 55 69 63 75 35 29
-41 -70 -70 -110 -76 -105 -2 3 -11 -6 -18 -20 -8 -14 -14 -19 -15 -12 0 10
-4 10 -15 -2 -9 -8 -29 -23 -45 -33 -29 -17 -37 -33 -24 -46 4 -3 16 5 27 19
10 14 25 23 33 20 18 -7 116 101 142 157 12 25 26 48 32 52 5 3 10 13 10 22 0
13 -2 13 -17 2 -15 -13 -15 -12 -2 8 9 16 16 19 21 10 6 -9 8 -8 9 3 1 8 2 21
3 29 2 25 50 51 121 65 94 18 119 19 80 1z m1552 -126 c121 -1 133 -14 25 -28
-106 -13 -178 -7 -240 21 -69 31 -60 13 10 -21 44 -22 85 -33 138 -38 71 -7
73 -7 35 -14 -52 -10 -148 8 -188 35 -18 12 -40 25 -49 29 -13 4 -18 17 -18
46 l0 39 105 -34 c80 -26 122 -34 182 -35z m679 -10 c-74 -47 -149 -69 -230
-69 -135 0 -123 28 24 54 52 10 127 23 165 31 96 18 96 18 41 -16z m-2019 -20
c57 -27 93 -81 92 -134 l-1 -40 -14 45 c-22 72 -60 111 -115 117 -27 3 -63 0
-85 -8 l-39 -13 58 -7 c62 -7 110 -39 121 -83 4 -16 -2 -12 -27 16 -40 45 -65
58 -114 58 -47 0 -76 -15 -171 -88 -91 -69 -133 -118 -170 -197 -21 -44 -30
-55 -35 -42 -3 9 -2 17 4 17 6 0 7 5 4 10 -3 6 -2 10 2 10 5 0 9 8 10 18 5 66
167 248 264 298 95 48 151 54 216 23z m2473 -39 c194 -25 344 -97 494 -240 75
-72 100 -106 156 -219 88 -179 107 -336 63 -530 -14 -64 -38 -131 -46 -131 -3
0 0 21 4 47 12 65 4 66 -11 1 -7 -29 -26 -78 -42 -110 -29 -55 -172 -238 -186
-238 -4 0 -20 -12 -37 -26 -40 -34 -137 -88 -205 -113 -103 -38 -180 -51 -300
-49 l-115 1 120 7 c147 9 211 26 340 89 173 86 284 196 366 365 55 113 72 202
67 344 -4 96 -11 134 -37 212 -17 52 -43 111 -56 130 -16 21 -21 36 -14 41 10
6 -68 109 -107 139 -18 14 -18 14 -5 -2 21 -28 -1 -21 -34 10 -17 16 -59 49
-94 73 -34 24 -72 51 -84 59 -13 10 -18 10 -13 2 5 -8 -10 -5 -42 7 -87 34
-170 52 -255 53 -45 1 -88 6 -96 12 -11 8 -13 8 -7 -1 5 -10 -2 -13 -28 -13
-86 0 -284 -86 -399 -174 -25 -19 -47 -32 -50 -30 -3 3 -4 -3 -3 -13 0 -11 -5
-18 -16 -17 -10 1 -16 -2 -13 -6 3 -4 -4 -19 -15 -31 -11 -13 -19 -20 -20 -14
0 5 -8 -4 -17 -21 -10 -17 -35 -61 -57 -98 -21 -36 -49 -106 -63 -154 -22 -77
-24 -101 -20 -212 4 -93 11 -141 27 -190 41 -120 113 -244 182 -312 32 -31 34
-38 12 -38 -9 0 -12 5 -8 12 4 7 3 8 -5 4 -6 -4 -20 -2 -29 5 -9 8 -6 0 8 -16
l25 -29 -27 21 c-87 65 -188 227 -224 358 -25 93 -30 304 -10 395 45 199 157
368 321 485 77 55 140 86 240 119 132 43 227 53 365 36z m-4082 -31 c268 -71
485 -253 581 -488 43 -104 56 -182 54 -321 -2 -199 -40 -313 -155 -475 -48
-68 -128 -158 -104 -117 5 8 -12 -7 -37 -31 -45 -46 -162 -109 -261 -142 -59
-19 -186 -36 -201 -27 -5 4 -48 8 -95 9 -93 3 -224 32 -291 65 -24 11 -55 20
-69 20 -30 0 -54 14 -138 81 -36 29 -61 57 -60 66 2 9 -2 15 -9 14 -19 -4
-101 96 -133 162 -42 83 -89 255 -96 345 -12 147 32 334 109 462 186 310 563
467 905 377z m2712 -80 c109 -88 162 -154 88 -109 -28 17 -34 18 -38 4 -4 -12
-14 -7 -47 21 -24 20 -44 31 -48 25 -3 -5 -2 -10 2 -10 5 0 33 -22 62 -49 29
-27 68 -57 87 -67 19 -10 34 -22 34 -27 0 -5 -13 -1 -28 10 -184 118 -242 165
-242 192 0 15 39 70 50 71 3 0 39 -27 80 -61z m-396 -81 c-21 -42 -52 -76 -84
-93 -36 -19 -144 -37 -174 -29 -24 6 -26 10 -26 64 0 33 5 62 10 65 6 4 8 11
5 16 -4 5 -1 9 4 9 6 0 11 -4 11 -9 0 -4 33 -11 74 -15 89 -8 129 5 166 54
l25 33 3 -31 c2 -17 -4 -46 -14 -64z m-376 -17 c19 -60 15 -114 -7 -128 -15
-10 -21 -10 -24 0 -3 7 -6 4 -6 -5 -1 -26 -21 -22 -21 5 0 13 -3 17 -8 11 -4
-7 -18 16 -34 55 -15 36 -21 57 -13 47 16 -21 19 -18 9 8 -3 9 -15 16 -27 16
-32 0 -15 10 34 19 80 16 85 15 97 -28z m627 -61 c18 -35 32 -104 40 -210 l6
-65 -26 69 c-30 82 -40 96 -31 41 4 -22 8 -51 10 -65 2 -14 11 -42 20 -63 21
-48 2 -39 -23 11 -39 76 -96 302 -77 302 3 0 12 -12 21 -27 l16 -28 -6 38
c-11 69 13 68 50 -3z m1224 -45 c27 -13 51 -32 55 -41 6 -15 4 -15 -11 -3 -11
9 -14 10 -9 2 4 -7 3 -20 -2 -29 -8 -14 -10 -14 -24 -1 -8 9 -33 18 -54 21
-21 3 -31 3 -21 0 26 -8 21 -27 -5 -20 -13 3 -28 6 -35 6 -7 0 -10 6 -8 13 4
8 -7 12 -36 11 -50 -1 -63 20 -28 47 36 28 118 25 178 -6z m435 -62 c34 -33
62 -92 71 -148 l6 -40 -15 33 c-15 31 -34 46 -22 17 11 -29 -5 -14 -19 18 -12
27 -14 28 -15 10 0 -25 -15 -31 -24 -10 -8 15 -1 -21 9 -48 4 -11 -3 -4 -15
15 -28 43 -38 25 -17 -29 25 -62 3 -73 -27 -13 -51 100 -54 175 -9 224 18 20
34 14 77 -29z m-1956 -75 c12 -32 25 -73 27 -90 4 -27 2 -24 -12 14 -10 26
-21 49 -24 53 -8 7 17 -118 30 -155 29 -79 16 -107 -24 -53 -57 78 -205 234
-215 228 -9 -6 -43 32 -46 49 -2 11 23 14 119 12 l122 -1 23 -57z m-403 -232
c-9 -13 -26 -27 -38 -31 -14 -4 -17 -8 -9 -12 10 -4 10 -8 0 -21 -11 -14 -8
-14 15 1 59 38 35 8 -34 -42 -59 -43 -69 -48 -63 -29 6 20 5 21 -9 10 -18 -15
-37 -8 -37 14 0 23 -18 16 -23 -8 -4 -19 -4 -18 -6 5 0 16 3 37 9 47 19 36
128 88 188 89 21 1 22 0 7 -23z m2242 -45 c30 -14 41 -25 40 -39 -1 -20 -27
-25 -39 -8 -9 13 -58 -10 -58 -27 0 -8 -11 -19 -25 -25 -20 -9 -25 -9 -25 3 0
9 -6 12 -16 8 -8 -3 -13 -12 -10 -19 3 -8 0 -11 -10 -7 -8 3 -13 12 -10 20 3
8 1 11 -4 8 -15 -9 -73 56 -62 67 13 13 101 36 142 37 19 0 54 -8 77 -18z
m283 -20 c0 -5 -3 -11 -7 -14 -5 -2 -3 -2 4 -1 7 2 15 -1 18 -6 4 -6 2 -10 -4
-10 -6 0 -13 -11 -17 -24 -7 -30 -39 -60 -53 -51 -6 3 -11 -1 -11 -10 0 -9 5
-13 11 -9 6 3 3 -6 -7 -21 -10 -15 -20 -23 -22 -16 -2 6 -9 11 -16 11 -7 0
-23 9 -35 19 -21 18 -22 23 -11 55 11 33 43 65 80 79 24 9 70 8 70 -2z m-947
-37 c77 -32 112 -61 95 -81 -6 -8 -7 -13 -2 -11 11 3 67 -33 60 -39 -2 -3 -15
1 -28 8 l-23 12 20 -24 c20 -24 20 -24 0 -9 -11 8 -26 21 -33 28 -16 15 -39
16 -47 2 -3 -5 -12 -10 -18 -10 -8 0 -7 3 2 9 11 7 9 11 -10 21 -15 9 -24 9
-27 2 -3 -11 -82 36 -82 50 0 5 -4 6 -10 3 -14 -9 -12 39 2 53 17 17 31 15
101 -14z m1172 -64 c3 -5 0 -22 -8 -37 -8 -15 -12 -34 -10 -40 3 -7 0 -13 -6
-13 -6 0 -11 8 -11 17 0 10 -16 -14 -35 -54 -19 -39 -40 -75 -46 -79 -12 -7
-11 -3 3 46 3 8 3 12 1 7 -3 -4 -9 -5 -14 -1 -5 3 -10 -5 -10 -18 -4 -85 -19
-118 -19 -43 0 80 28 161 67 195 33 30 76 39 88 20z m-3688 -33 c18 -38 120
-143 153 -157 38 -16 38 -24 -4 -49 -34 -22 -84 -72 -122 -124 l-20 -29 4 69
c4 75 17 93 63 93 43 0 44 18 2 22 -39 3 -44 9 -73 82 -9 24 -13 27 -21 15
-13 -22 -11 -89 4 -89 26 0 40 -17 29 -36 -9 -16 -12 -15 -35 9 -17 20 -34 27
-60 27 -20 0 -39 -5 -42 -10 -8 -13 44 -33 72 -27 19 4 23 -1 27 -37 11 -92
16 -156 12 -156 -3 0 -12 15 -21 33 -20 42 -130 164 -155 172 -28 9 -25 21 10
35 37 15 138 122 146 155 8 31 18 32 31 2z m3166 -207 c25 0 57 -49 57 -88 0
-29 -2 -33 -15 -22 -12 10 -15 9 -16 -6 0 -11 -8 -1 -19 24 -22 48 -36 56 -25
15 4 -16 8 -48 9 -73 l3 -45 -18 40 c-12 25 -19 33 -19 21 0 -16 -2 -17 -12
-7 -7 6 -13 15 -13 19 -1 4 -7 18 -14 31 -15 28 -8 77 16 103 15 16 18 17 33
3 9 -8 24 -15 33 -15z m311 -59 c28 -27 25 -63 -3 -37 -9 8 -31 14 -49 14
l-32 -1 30 -21 c16 -12 30 -25 30 -30 0 -5 -10 -1 -21 10 -21 19 -22 19 -15
-3 8 -25 -3 -30 -22 -11 -9 9 -12 9 -12 1 0 -7 5 -15 10 -18 6 -3 10 -12 10
-18 0 -7 -12 3 -26 21 -29 37 -45 42 -36 10 9 -35 -15 -12 -28 28 -11 32 -10
38 11 61 21 22 30 24 77 21 36 -3 59 -11 76 -27z m-497 -32 c50 -31 85 -110
60 -135 -4 -4 -9 1 -13 10 -10 26 -37 20 -28 -6 5 -18 0 -15 -25 12 -20 22
-31 29 -32 20 -2 -20 -2 -22 7 -45 7 -18 6 -19 -11 -5 -17 14 -18 14 -6 -7 10
-19 9 -22 -3 -17 -21 8 -66 102 -66 135 0 30 31 59 64 59 10 0 34 -9 53 -21z
m943 -1300 c1 -673 4 -1241 7 -1261 3 -21 9 -35 14 -32 12 7 11 -16 -2 -57
-17 -49 -26 -55 -49 -34 -19 17 -19 19 -2 31 16 12 17 90 20 1300 1 708 4
1285 7 1283 2 -3 5 -556 5 -1230z m-5880 -65 c0 -1215 0 -1247 19 -1273 19
-27 19 -27 0 -39 -11 -7 -25 -10 -31 -6 -7 4 -5 10 5 15 19 11 11 49 -10 49
-9 0 -13 6 -9 15 3 8 6 571 6 1250 1 758 5 1235 11 1235 5 0 9 -481 9 -1246z
m5630 973 c4 -21 8 -24 20 -17 23 15 40 12 34 -5 -4 -8 -14 -15 -23 -15 -13
-1 -12 -4 7 -19 30 -26 29 -57 -3 -65 -18 -5 -25 -13 -25 -31 0 -18 -5 -25
-19 -25 -14 0 -17 6 -13 25 2 14 0 25 -6 25 -14 0 -72 56 -72 70 0 9 20 14 46
11 6 -1 17 6 25 15 10 13 10 17 -1 24 -16 10 -5 43 13 38 6 -3 14 -17 17 -31z
m-1675 -227 c50 -6 119 -18 155 -26 69 -17 260 -101 260 -115 0 -5 -13 -23
-28 -41 -40 -47 -92 -123 -138 -199 l-39 -67 -37 29 c-55 45 -135 77 -216 88
-215 29 -397 -78 -469 -276 -31 -85 -32 -222 -3 -309 37 -110 125 -201 237
-245 85 -34 223 -32 313 3 l65 25 3 106 3 107 -166 0 -165 0 0 155 0 155 330
0 330 0 0 -474 c0 -261 -3 -477 -7 -479 -5 -3 -109 5 -233 17 -221 21 -226 22
-271 53 -89 61 -355 163 -426 163 -13 0 -45 21 -77 49 -50 45 -103 71 -148 71
-25 0 -60 42 -120 143 -70 118 -90 132 -195 133 l-82 0 -78 95 c-44 52 -128
155 -187 229 -60 74 -113 137 -117 138 -5 2 -9 -192 -9 -431 l0 -434 -43 -6
c-59 -8 -212 -53 -264 -77 -24 -11 -45 -20 -48 -20 -3 0 -5 317 -5 704 l0 703
39 7 c21 3 122 6 224 5 l186 0 79 -92 c43 -51 153 -185 245 -298 92 -113 176
-214 187 -224 19 -18 20 -17 20 5 0 45 33 155 66 224 116 235 325 377 599 406
104 11 131 11 230 0z m1375 -26 c96 -25 227 -84 292 -132 31 -23 59 -46 63
-51 3 -6 -18 -45 -47 -88 -67 -100 -118 -183 -118 -194 0 -16 -11 -10 -55 29
-115 101 -249 148 -399 140 -131 -7 -212 -64 -210 -150 3 -85 73 -120 329
-163 88 -15 190 -38 227 -50 228 -77 338 -234 338 -481 0 -270 -147 -459 -415
-535 -119 -34 -322 -32 -456 4 -157 43 -318 125 -401 205 -37 36 -38 36 -19
56 11 12 55 72 99 134 l80 112 56 -48 c169 -148 434 -196 602 -109 103 53 128
176 55 260 -44 49 -107 75 -248 103 -206 40 -292 63 -370 99 -94 44 -172 120
-216 212 -30 64 -32 74 -32 183 1 108 3 119 32 182 39 84 81 137 151 189 64
49 137 83 212 98 30 6 64 13 75 15 45 11 312 -4 375 -20z m-3800 -5 c0 -6 -26
-38 -58 -72 -64 -68 -494 -563 -555 -639 l-38 -47 145 -183 c80 -101 222 -277
316 -393 93 -115 170 -216 170 -222 0 -7 -11 -13 -23 -13 -13 0 -111 -16 -217
-35 -159 -28 -195 -32 -204 -21 -96 117 -189 236 -310 399 -81 108 -152 197
-157 197 -4 0 -18 -13 -30 -29 -21 -28 -21 -37 -20 -345 l2 -315 -23 -6 c-13
-3 -72 -16 -133 -30 -60 -13 -134 -31 -162 -38 l-53 -14 0 903 0 904 185 0
185 0 0 -286 c0 -160 4 -284 9 -282 5 2 57 64 117 139 60 75 163 201 229 282
l120 145 200 4 c110 2 224 4 253 6 32 1 52 -2 52 -9z m379 5 l31 -7 -2 -740
-3 -740 -175 -33 c-96 -19 -178 -34 -182 -34 -5 0 -8 351 -8 780 l0 780 154 0
c84 0 168 -3 185 -6z m1054 -1042 c24 -25 27 -35 25 -88 -1 -32 1 -70 5 -84 7
-22 7 -23 -4 -6 -7 11 -17 40 -24 65 -10 40 -13 43 -19 23 -5 -16 3 -43 29
-96 59 -119 219 -271 365 -345 120 -62 215 -114 245 -134 178 -123 285 -294
391 -627 26 -82 41 -213 27 -247 -5 -15 -9 5 -10 62 -2 101 -36 235 -94 370
-48 112 -72 160 -98 192 -17 21 -40 49 -51 63 -12 15 -9 5 8 -25 16 -28 38
-75 49 -105 11 -30 24 -64 28 -75 l8 -20 -17 20 c-16 19 -16 18 -2 -17 23 -59
37 -141 28 -172 l-8 -29 -13 41 c-10 28 -18 39 -28 35 -8 -3 -19 0 -23 7 -4 7
-16 9 -29 5 -12 -3 -19 -10 -16 -15 3 -5 13 -6 23 -3 13 5 14 3 6 -6 -9 -10
-16 -10 -31 0 -19 12 -19 13 11 40 33 29 31 48 -2 30 -12 -6 -29 -11 -39 -11
-15 0 -14 2 5 16 12 8 26 23 32 34 9 17 6 18 -53 14 l-62 -4 40 16 c60 22 62
32 6 26 -59 -5 -124 5 -116 19 4 5 -3 9 -14 9 -12 0 -21 5 -21 11 0 7 10 9 25
5 14 -4 25 -2 25 4 0 5 -15 10 -32 11 -66 1 -123 40 -83 55 30 12 14 26 -24
22 -27 -2 -37 0 -34 8 2 7 -5 15 -16 19 -28 9 -27 28 2 20 18 -5 17 -3 -5 10
-16 9 -28 20 -28 25 0 5 -6 7 -14 4 -19 -7 -29 12 -18 32 13 24 3 54 -19 54
-11 0 -19 4 -19 10 0 12 -40 50 -53 50 -5 0 -2 -11 6 -24 14 -21 15 -25 1 -30
-9 -3 -12 -2 -9 5 4 6 0 18 -8 27 -19 23 -29 52 -17 52 6 0 10 -5 10 -12 0 -6
2 -9 5 -6 9 8 -64 139 -99 178 -17 19 -42 49 -54 65 -14 18 -21 23 -18 11 6
-16 4 -17 -9 -6 -8 7 -12 16 -9 21 3 5 0 17 -5 26 -6 10 -11 14 -11 10 0 -5
-23 16 -51 47 -29 30 -57 53 -62 49 -6 -4 -8 0 -5 9 5 11 -10 24 -52 47 -33
17 -66 31 -74 31 -20 0 -86 -40 -86 -52 0 -5 -4 -6 -10 -3 -20 13 -11 72 16
99 39 39 84 35 134 -10 22 -20 40 -32 40 -27 0 6 -8 17 -18 26 -11 10 -18 29
-17 44 2 19 1 21 -2 6 -7 -40 -23 -25 -23 21 0 93 102 141 163 78z m-339 -361
c3 -5 -16 -12 -42 -16 -26 -4 -97 -19 -158 -35 -411 -104 -730 -336 -887 -647
-52 -102 -72 -203 -71 -363 0 -135 3 -151 31 -235 37 -107 70 -185 107 -245
l27 -45 -30 34 c-72 82 -143 258 -166 413 -30 200 -14 323 59 473 135 278 388
482 739 598 168 56 376 92 391 68z m906 -31 c178 -52 385 -159 525 -272 86
-68 181 -176 237 -269 69 -114 119 -278 117 -389 l-1 -55 -13 60 c-52 232
-154 415 -322 576 -142 136 -271 213 -512 304 -74 27 -136 56 -139 64 -3 9 2
11 14 8 11 -3 53 -15 94 -27z m-700 -55 c20 -24 18 -49 -4 -65 -12 -8 -25 -18
-31 -22 -5 -5 -28 -21 -50 -38 -84 -61 -124 -95 -124 -107 -1 -6 -14 -22 -29
-35 -16 -13 -26 -30 -24 -37 3 -10 -1 -12 -12 -8 -9 4 -16 2 -16 -3 0 -5 -8
-6 -17 -3 -12 5 -15 2 -10 -10 3 -8 -1 -21 -9 -27 -10 -9 -14 -9 -14 -1 0 6
-8 11 -17 10 -11 0 -13 -3 -5 -6 21 -8 13 -29 -15 -43 -16 -8 -31 -14 -35 -14
-4 -1 -14 -10 -22 -21 -9 -11 -16 -17 -16 -13 0 4 -9 0 -20 -9 -14 -12 -18
-24 -13 -42 6 -23 5 -25 -10 -12 -14 11 -17 11 -17 0 0 -11 -3 -11 -11 1 -9
12 -10 11 -6 -7 4 -17 1 -23 -13 -23 -11 0 -22 -4 -25 -10 -3 -5 -16 -10 -28
-10 l-22 -1 24 -19 c13 -11 32 -20 43 -20 11 0 16 -5 13 -11 -4 -6 -13 -8 -21
-5 -8 3 -14 1 -14 -4 0 -6 -4 -10 -10 -10 -5 0 -10 7 -10 15 0 18 -36 39 -45
25 -3 -5 3 -15 15 -22 23 -15 27 -33 6 -25 -8 3 -16 1 -18 -5 -3 -8 -10 -8
-24 0 -22 12 -74 5 -74 -10 0 -6 -9 -8 -20 -5 -11 3 -20 0 -20 -6 0 -7 -5 -6
-11 3 -8 11 -9 6 -5 -20 7 -36 -8 -32 -17 5 -5 19 -5 19 -12 -3 -5 -15 -10
-19 -15 -13 -4 7 -14 -4 -25 -26 -48 -99 -69 -138 -76 -143 -11 -8 -39 -81
-39 -104 -1 -18 -3 -16 -15 9 -14 29 -14 29 -8 -20 7 -63 -6 -53 -15 11 l-7
48 -17 -26 c-16 -24 -16 -32 -3 -80 7 -29 12 -55 10 -57 -5 -4 -35 67 -35 82
0 6 -3 8 -6 5 -8 -9 25 -129 46 -165 22 -38 13 -43 -18 -10 -69 74 -86 212
-39 325 28 69 52 104 198 292 120 155 185 223 269 279 69 46 50 47 -37 1 -74
-40 -133 -83 -133 -99 0 -7 -6 -11 -15 -7 -9 3 -29 -7 -49 -24 -33 -29 -56
-38 -56 -22 0 5 11 15 25 22 14 7 25 17 25 22 0 22 -94 -60 -147 -129 -34 -44
-62 -34 -31 11 50 72 105 130 179 190 128 102 219 140 530 220 97 25 200 56
230 70 65 29 73 30 89 11z m667 -101 c126 -59 218 -117 281 -177 39 -38 57
-67 30 -51 -7 4 -8 3 -4 -5 4 -6 11 -9 15 -6 8 4 30 -17 61 -59 10 -13 10 -17
3 -12 -15 8 -16 5 -7 -18 3 -9 10 -16 16 -16 5 0 6 5 2 12 -4 7 -3 8 4 4 6 -4
8 -14 5 -23 -5 -13 -12 -9 -34 18 -32 38 -38 58 -11 38 15 -13 16 -12 3 3 -7
10 -17 16 -21 13 -5 -3 -30 20 -57 50 -63 72 -169 147 -323 230 -144 76 -126
76 37 -1z m1296 -148 c22 -54 125 -169 167 -186 34 -14 38 -26 11 -35 -28 -9
-143 -130 -166 -176 l-21 -41 4 90 c4 80 2 91 -15 103 -11 8 -25 25 -32 37
-11 21 -17 23 -49 17 -20 -4 -41 -9 -45 -12 -14 -9 15 -23 48 -23 17 0 35 -4
41 -8 6 -4 14 -52 18 -107 l7 -100 -27 40 c-47 69 -124 153 -161 176 l-36 22
32 17 c51 26 149 129 174 181 12 27 24 48 27 49 3 0 13 -20 23 -44z m-4240
-250 c23 -24 50 -57 59 -73 l17 -29 -27 1 c-15 1 -42 -4 -60 -12 -21 -8 -40
-9 -50 -4 -10 5 -61 8 -114 7 l-97 -1 47 49 c115 119 159 131 225 62z m3570
-35 c17 -51 44 -164 53 -221 4 -24 -28 72 -56 172 -14 47 -29 55 -31 15 -1
-17 -2 -18 -6 -4 -2 9 -8 17 -13 17 -12 0 -2 -244 10 -248 6 -2 10 -27 9 -55
l0 -52 -20 65 c-11 36 -24 76 -29 90 -15 44 -11 -9 5 -70 8 -30 15 -66 14 -80
0 -15 -6 -3 -15 28 -7 29 -23 80 -34 114 -46 139 -8 295 68 286 23 -3 30 -11
45 -57z m-2360 -33 c4 -13 -30 -149 -40 -158 -3 -3 -3 7 1 23 18 78 18 82 9
72 -18 -17 -69 -210 -96 -360 -2 -11 -7 -27 -10 -35 -3 -8 -7 -22 -10 -30 -6
-18 -27 31 -27 61 0 23 97 352 113 384 13 26 38 55 48 55 4 0 9 -6 12 -12z
m3872 -18 c212 -67 408 -229 503 -416 53 -105 67 -171 67 -324 0 -155 -11
-241 -25 -205 -8 18 -9 17 -9 -6 -1 -30 -52 -149 -97 -229 -17 -30 -56 -78
-87 -107 -75 -71 -191 -145 -213 -136 -12 4 -15 3 -10 -6 5 -8 3 -11 -5 -10
-19 4 -60 -11 -76 -27 -20 -19 -100 -25 -293 -21 -161 4 -181 6 -245 31 -120
46 -221 108 -208 129 3 6 1 7 -6 3 -14 -9 -43 12 -35 25 3 5 -1 6 -9 4 -24
-10 -140 131 -190 230 -53 107 -87 256 -87 386 0 166 94 365 234 496 105 99
231 164 381 199 93 21 320 13 410 -16z m-2885 -32 c11 -12 20 -29 20 -37 0 -9
18 -27 40 -41 22 -13 40 -27 40 -31 0 -3 -15 -11 -32 -17 -22 -7 -26 -10 -13
-11 11 0 33 6 49 14 36 19 46 19 46 0 0 -8 -4 -15 -10 -15 -5 0 -10 -8 -10
-17 0 -15 2 -14 19 3 10 10 16 25 13 32 -5 13 2 15 36 6 14 -4 21 -12 18 -20
-3 -8 -3 -14 0 -14 2 0 9 11 14 25 5 13 28 34 51 46 46 23 61 34 91 67 27 27
32 27 69 0 26 -20 28 -23 12 -29 -10 -4 -25 0 -35 8 -9 8 -22 12 -29 8 -8 -6
-4 -12 12 -21 27 -15 79 -18 79 -5 0 5 8 12 17 15 12 5 26 -3 45 -26 34 -41
35 -48 3 -48 -18 0 -23 -4 -19 -15 4 -10 19 -15 43 -14 20 0 30 3 24 6 -22 8
-14 23 12 23 29 0 45 -28 24 -41 -8 -5 -9 -9 -4 -10 22 -4 41 -6 62 -8 25 -1
54 -42 34 -49 -6 -2 -9 -8 -5 -13 3 -5 -1 -16 -10 -24 -17 -17 -46 -20 -46 -5
0 6 -12 10 -26 10 -21 0 -25 4 -22 23 2 17 10 22 33 24 48 2 51 4 29 13 -27
11 -114 0 -114 -14 0 -7 5 -17 12 -24 17 -17 -9 -44 -35 -36 -15 5 -19 3 -14
-9 7 -17 -30 -49 -70 -61 -20 -7 -23 -4 -23 23 0 30 7 35 43 32 9 -1 17 4 17
13 0 23 -39 20 -59 -5 -14 -17 -30 -22 -82 -25 -54 -2 -64 -6 -62 -21 3 -37
-16 -53 -62 -53 -25 0 -45 3 -45 8 1 26 15 51 33 57 20 7 20 8 -8 14 -43 10
-57 4 -43 -19 9 -14 8 -21 -4 -33 -9 -9 -18 -13 -22 -10 -3 4 -6 -3 -6 -15 0
-12 -4 -22 -10 -22 -5 0 -10 -5 -10 -11 0 -7 12 -10 29 -7 23 3 27 1 24 -13
-3 -10 -13 -25 -23 -34 -15 -13 -22 -14 -45 -3 -23 10 -29 10 -33 0 -3 -10 -7
-10 -18 -1 -18 15 -18 35 1 43 8 3 15 10 15 16 0 5 -7 10 -15 10 -8 0 -15 3
-15 8 0 4 -3 17 -6 28 -4 16 0 23 18 29 25 8 28 6 -39 21 -14 3 -23 12 -23 24
0 12 -5 17 -13 14 -23 -8 -60 12 -62 33 -1 18 4 20 42 16 24 -2 43 1 43 6 0 6
-26 11 -57 13 l-58 3 26 24 26 25 -31 15 c-17 9 -32 22 -32 29 -3 23 -4 24
-19 12 -15 -13 -11 -35 5 -25 5 3 16 -8 24 -24 14 -25 14 -30 1 -41 -19 -16
-45 -6 -45 16 0 36 -14 2 -16 -39 -2 -31 0 -37 7 -24 13 23 46 22 59 -2 13
-25 4 -48 -22 -57 -19 -6 -19 -6 -1 -27 10 -12 14 -19 9 -15 -5 4 -16 2 -24
-5 -13 -10 -15 -9 -10 5 5 11 0 18 -14 21 -16 5 -19 12 -16 31 4 20 0 27 -23
37 -31 12 -37 24 -16 32 6 3 2 6 -11 6 -20 1 -21 -1 -11 -20 6 -12 19 -24 30
-26 15 -4 17 -9 8 -25 -7 -13 -18 -18 -29 -15 -11 3 -20 1 -22 -5 -2 -5 -13
-5 -28 1 -14 5 -21 10 -16 10 6 1 1 8 -10 17 -10 8 -13 13 -7 9 9 -4 11 -1 6
11 -4 12 -2 15 8 12 8 -3 13 -11 11 -18 -3 -15 30 -9 36 8 2 7 -2 10 -10 7 -8
-3 -20 4 -27 19 -8 15 -19 22 -28 19 -12 -5 -12 -7 -2 -14 16 -10 -2 -34 -31
-42 -24 -6 -44 24 -35 52 8 25 45 57 75 65 23 6 23 6 8 -7 -26 -21 -22 -34 11
-39 27 -4 28 -3 18 20 -8 18 -8 25 2 31 6 4 11 14 9 22 -2 10 8 14 36 14 26 0
41 5 43 15 4 11 2 12 -5 2 -8 -12 -42 -7 -42 7 0 3 10 12 21 19 15 10 24 11
32 3 16 -16 37 -13 31 4 -4 11 5 20 31 31 36 15 38 14 62 -8 l25 -23 -7 24
c-5 16 -3 26 6 32 20 13 26 11 49 -13z m-2038 -68 c16 -19 34 -44 40 -55 10
-19 10 -19 -13 1 -39 34 -53 40 -41 17 10 -18 8 -20 -21 -18 -17 1 -33 7 -35
14 -2 6 -8 11 -13 11 -4 0 -6 -6 -4 -12 4 -10 -9 -13 -47 -11 -73 2 -72 1 -58
18 10 12 10 15 -4 15 -9 0 -16 -6 -16 -14 0 -19 -50 -29 -82 -17 -14 5 -28 8
-30 5 -3 -2 -67 -6 -144 -8 l-139 -4 45 39 c25 21 59 43 75 49 17 5 125 8 244
7 l213 -2 30 -35z m1579 -48 c-6 -2 -9 -8 -5 -13 3 -5 -1 -9 -9 -9 -8 0 -72
-55 -143 -122 -129 -125 -136 -128 -104 -43 27 72 259 251 269 207 2 -9 -2
-18 -8 -20z m-1535 -65 c30 -10 38 -17 36 -32 -4 -24 -32 -56 -32 -37 0 7 5
12 10 12 6 0 10 5 10 11 0 7 -11 4 -26 -6 -15 -9 -23 -12 -20 -6 4 6 3 11 -3
11 -5 0 -13 -5 -16 -11 -4 -6 -13 -8 -20 -5 -7 2 -16 2 -19 -1 -12 -12 -72 -9
-94 4 -18 11 -27 12 -38 3 -7 -7 -43 -15 -79 -17 -52 -5 -66 -3 -71 10 -8 22
-139 23 -148 2 -4 -11 2 -15 25 -15 18 0 28 4 24 10 -3 6 -1 10 5 10 7 0 10
-6 7 -12 -3 -10 -31 -12 -108 -10 -57 2 -123 -1 -146 -6 -29 -7 -45 -6 -53 2
-9 8 -11 7 -8 -4 2 -11 -7 -16 -30 -18 -30 -3 -32 -1 -24 15 25 44 92 97 134
104 70 13 639 1 684 -14z m426 -224 c49 -48 91 -97 94 -108 3 -11 -4 -41 -14
-65 l-19 -45 -26 50 c-14 28 -61 88 -104 135 -68 73 -132 154 -157 197 -20 36
150 -88 226 -164z m-1004 97 c56 0 102 -3 102 -8 0 -9 -53 -36 -105 -54 -22
-7 -43 -17 -47 -23 -5 -6 -8 -4 -8 5 0 9 -3 11 -8 5 -14 -19 -40 -16 -47 5 -5
15 -12 19 -23 15 -25 -10 -231 -11 -225 -2 3 5 24 22 46 39 41 29 44 30 127
24 47 -3 131 -5 188 -6z m2951 -14 c10 -12 8 -17 -8 -25 -11 -6 -29 -11 -41
-11 -12 0 -18 -4 -15 -10 3 -5 19 -10 36 -10 24 0 29 -4 29 -25 0 -14 3 -25 8
-25 14 0 5 -58 -11 -74 -13 -14 -14 -21 -5 -41 6 -14 17 -25 25 -25 7 0 13 -9
13 -20 0 -11 -7 -20 -15 -20 -8 0 -15 5 -15 11 0 16 -24 36 -38 31 -7 -2 -10
-8 -6 -13 3 -5 -1 -9 -10 -9 -8 0 -21 -3 -30 -6 -24 -9 -20 23 4 38 29 18 26
48 -4 48 -14 0 -27 4 -31 10 -8 12 45 46 53 34 8 -11 38 -12 48 -1 4 4 1 7 -6
7 -23 0 -50 32 -50 58 0 21 -2 22 -15 12 -8 -7 -15 -8 -15 -2 0 5 7 15 15 22
8 7 15 18 15 26 0 14 27 33 46 34 6 0 17 -6 23 -14z m-493 -56 c5 5 35 6 66 3
63 -6 79 -24 52 -54 -14 -15 -20 -17 -32 -7 -12 10 -14 9 -11 -7 3 -14 14 -21
36 -23 39 -4 64 -29 42 -43 -23 -14 -79 -11 -85 6 -4 8 -11 15 -18 15 -10 0
-46 34 -46 44 0 2 10 7 23 10 19 5 20 8 6 16 -19 11 -71 -1 -77 -18 -2 -7 8
-16 22 -22 26 -10 34 -34 16 -45 -6 -4 -18 -1 -27 7 -9 7 -19 12 -22 10 -12
-5 -12 100 0 114 10 13 14 13 29 -1 10 -9 20 -11 26 -5z m-2577 -46 c2 -2 -8
-8 -22 -13 -14 -6 -34 -22 -43 -37 -15 -22 -23 -25 -50 -21 -17 3 -37 0 -43
-6 -8 -8 -11 -7 -11 4 0 12 -2 12 -10 -1 -6 -10 -10 -11 -10 -2 0 15 -25 15
-72 -2 -31 -11 -42 -11 -63 0 -44 23 -28 -5 49 -86 41 -43 79 -88 86 -101 11
-23 11 -23 -9 1 -18 22 -21 23 -21 6 0 -14 -9 -6 -32 25 -17 24 -39 50 -47 57
-13 11 -13 12 -1 7 8 -4 3 3 -12 15 -16 12 -28 28 -28 36 0 9 -4 13 -9 10 -4
-3 -16 3 -26 14 -35 38 13 89 95 101 42 6 270 0 279 -7z m909 -36 c18 -5 42
-8 53 -5 13 4 28 -6 50 -34 40 -51 33 -68 -13 -31 -21 16 -34 33 -30 38 4 5 0
3 -8 -2 -8 -6 -22 -12 -30 -12 -8 -1 -50 -3 -92 -6 l-78 -6 0 30 c0 17 7 33
18 39 18 11 74 7 130 -11z m3378 -65 c-23 -164 -138 -370 -277 -499 -84 -78
-220 -169 -333 -224 -518 -252 -1116 -250 -1626 4 -134 67 -206 116 -290 195
l-65 62 70 -54 c109 -84 155 -113 282 -176 322 -161 663 -220 1031 -180 390
42 793 239 1010 492 65 75 154 253 179 355 19 82 28 94 19 25z m-2990 -62 c-3
-38 -12 -96 -20 -128 -16 -62 -31 -185 -18 -143 5 16 8 -12 9 -75 1 -55 6
-131 12 -170 66 -413 390 -784 861 -983 273 -115 623 -171 900 -143 391 40
794 221 1050 471 184 180 314 421 355 659 18 102 21 337 5 435 -6 38 -9 70 -7
73 3 2 12 -27 21 -64 43 -181 50 -417 17 -553 -52 -209 -154 -383 -327 -559
-69 -69 -127 -120 -133 -117 -6 4 -31 -7 -56 -24 -32 -22 -43 -35 -39 -48 5
-13 4 -14 -4 -3 -8 11 -23 6 -78 -31 -74 -47 -200 -108 -226 -108 -9 0 -18 -4
-20 -9 -6 -15 -220 -82 -313 -97 -49 -8 -128 -21 -175 -29 -129 -21 -372 -19
-521 5 -207 34 -235 40 -329 71 -49 16 -94 27 -100 24 -18 -11 -315 132 -315
153 0 6 -4 14 -9 19 -5 5 -6 3 -2 -4 4 -7 3 -13 -2 -13 -15 0 -33 26 -24 35 4
5 1 5 -5 1 -26 -15 -234 165 -336 289 -53 65 -147 224 -177 298 -62 155 -73
216 -74 397 0 155 2 173 32 290 38 147 39 150 48 150 4 0 4 -31 0 -69z m-254
-9 c15 -15 -3 -44 -23 -39 -11 3 -17 2 -14 -3 3 -4 -9 -10 -25 -12 -20 -3 -30
0 -30 9 0 30 -97 28 -131 -3 -10 -9 -25 -14 -33 -11 -9 4 -18 2 -20 -2 -3 -5
-17 -7 -31 -6 -14 2 -25 -1 -25 -6 0 -5 -5 -9 -11 -9 -16 0 -3 59 18 83 16 17
29 18 167 14 82 -3 153 -10 158 -15z m368 -204 c34 -73 67 -146 73 -162 8 -24
11 -26 19 -12 5 10 6 23 1 29 -4 7 2 1 14 -13 13 -14 23 -29 23 -35 0 -5 -5
-3 -11 5 -9 13 -10 13 -6 0 2 -8 9 -14 15 -13 15 3 94 -96 86 -109 -4 -6 -3
-8 3 -5 6 4 47 -41 92 -102 209 -282 419 -440 710 -535 173 -57 255 -69 446
-69 155 0 240 8 365 33 25 5 59 12 75 15 l30 6 -27 -15 c-15 -9 -84 -29 -155
-45 -101 -23 -118 -30 -83 -30 72 -1 281 45 359 78 80 34 255 147 338 219 30
26 69 70 88 97 18 28 46 61 61 75 l28 25 -30 -40 c-17 -22 -40 -56 -52 -76
-28 -46 -113 -120 -230 -198 -154 -104 -250 -143 -478 -195 -298 -69 -699 -12
-1014 143 -142 69 -150 72 -75 25 51 -31 105 -59 270 -134 27 -13 130 -45 185
-58 118 -29 196 -36 355 -36 146 0 187 4 290 27 164 36 250 61 312 92 62 29
67 30 59 9 -5 -12 -1 -12 22 3 15 10 45 28 67 38 22 11 62 35 88 52 27 18 53
30 58 27 5 -3 8 0 7 8 -2 7 5 12 14 12 10 -1 16 2 13 6 -3 5 -1 11 5 15 5 3
10 0 10 -7 0 -9 3 -9 10 2 9 13 10 13 10 0 0 -31 -276 -186 -312 -174 -10 3
-25 1 -32 -5 -8 -7 -74 -31 -148 -55 -394 -129 -839 -90 -1221 109 -58 30
-112 55 -119 55 -7 -1 1 -8 17 -17 17 -9 53 -33 80 -53 64 -47 163 -93 290
-135 291 -98 605 -101 938 -9 274 75 375 120 471 206 15 14 22 15 34 6 11 -10
13 -8 10 8 -2 13 2 19 14 18 10 -1 15 2 13 7 -7 10 32 32 44 24 5 -3 7 3 4 13
-2 10 3 25 13 33 16 12 17 12 11 -4 -4 -11 -3 -16 3 -12 6 3 10 11 10 17 0 6
8 17 18 25 9 8 10 11 2 7 -8 -5 3 13 25 38 27 31 43 42 48 34 6 -6 6 -4 3 8
-7 21 11 49 27 39 5 -3 8 -2 5 3 -3 5 -2 19 3 32 7 20 12 21 30 11 16 -8 20
-8 14 0 -4 7 5 27 19 46 14 18 26 38 26 44 0 6 5 11 10 11 6 0 10 5 10 10 0
21 -20 9 -26 -15 -3 -14 -10 -25 -15 -25 -5 0 -15 -11 -21 -25 -6 -14 -16 -25
-21 -25 -5 0 -2 10 6 23 9 12 33 54 54 94 35 68 53 83 53 45 0 -9 8 -1 19 18
10 19 16 39 13 44 -2 5 -11 -4 -18 -20 -10 -23 -12 -25 -13 -9 0 11 11 43 24
70 17 35 24 43 24 28 1 -12 -3 -25 -9 -28 -12 -7 -13 -25 -2 -25 5 0 16 27 25
60 20 70 22 92 6 70 -8 -11 -9 -9 -3 10 4 14 11 27 15 28 5 2 9 20 10 40 0 34
1 35 10 13 29 -72 -91 -383 -201 -523 -21 -26 -41 -44 -45 -40 -5 4 -5 2 -2
-4 10 -17 -58 -88 -74 -79 -8 6 -10 4 -4 -5 5 -9 -3 -23 -26 -42 -95 -81 -133
-109 -144 -104 -8 3 -11 -2 -8 -15 4 -14 1 -18 -9 -14 -7 3 -22 -2 -33 -10
-19 -15 -19 -16 5 -4 23 11 24 10 9 -6 -9 -9 -22 -17 -30 -19 -8 -1 -26 -10
-41 -20 -15 -10 -32 -15 -38 -11 -5 3 -10 3 -10 -2 0 -26 -326 -126 -545 -167
-336 -62 -687 -3 -1039 176 -154 78 -237 140 -400 298 -84 80 -102 94 -77 59
17 -25 71 -81 118 -125 47 -43 91 -84 97 -90 6 -6 54 -43 106 -82 101 -77 290
-177 404 -213 295 -93 600 -110 888 -49 122 26 400 122 478 165 39 21 41 22
71 24 11 0 17 6 14 11 -3 6 -2 10 2 10 34 0 277 233 341 328 103 150 221 419
222 502 0 19 5 42 11 50 8 11 9 0 5 -40 -16 -166 -16 -168 -6 -125 6 22 14
105 19 185 l9 145 -3 -165 c-2 -91 -8 -182 -15 -202 -6 -21 -11 -41 -12 -45
-1 -13 -45 -125 -73 -188 -108 -241 -345 -467 -640 -610 -242 -117 -444 -164
-738 -172 -262 -7 -432 18 -695 103 -266 87 -533 276 -701 497 -166 219 -229
425 -219 718 5 128 11 169 28 169 4 0 35 -60 70 -132z m-450 101 c-57 -46 -76
-56 -98 -54 -13 1 -26 -4 -29 -12 -3 -7 -14 -13 -25 -13 -17 0 -18 3 -8 15 11
13 8 15 -18 15 -21 0 -35 -8 -46 -25 -17 -26 -36 -33 -36 -13 0 43 -89 77
-114 43 -6 -8 -20 -16 -32 -18 -12 -1 -32 -10 -45 -18 -22 -14 -76 -39 -83
-39 -2 0 -2 19 0 42 6 72 18 77 169 65 264 -20 277 -20 330 7 62 30 67 31 35
5z m-630 -8 c0 -5 9 -7 20 -4 23 6 24 1 9 -42 -13 -34 -55 -53 -136 -62 -39
-5 -42 -3 -41 19 1 46 20 78 52 87 41 12 96 13 96 2z m1529 -4 c19 -7 36 -17
38 -23 4 -12 -27 -24 -64 -24 -13 0 -22 -3 -22 -7 4 -26 -2 -43 -13 -36 -22
13 -73 9 -80 -7 -5 -12 -7 -11 -7 4 -1 10 7 24 16 31 15 11 14 13 -13 11 -17
-1 -39 -7 -48 -15 -13 -11 -16 -11 -16 1 0 61 116 97 209 65z m-1739 -7 c9 -6
11 -10 3 -10 -7 0 -10 -6 -7 -14 7 -17 -27 -49 -74 -72 -57 -27 -73 -24 -96
19 -25 47 -17 56 61 73 73 15 94 16 113 4z m3918 -6 c12 -8 27 -24 33 -35 9
-19 8 -20 -10 -14 -12 3 -21 3 -20 -2 5 -29 -3 -35 -16 -13 -14 25 -14 25 -15
3 0 -13 -4 -23 -10 -23 -5 0 -10 7 -10 15 0 8 -4 15 -8 15 -4 0 -7 -15 -6 -32
1 -18 -1 -23 -3 -10 -2 12 -9 20 -14 17 -5 -4 -9 -2 -9 3 0 5 -11 7 -24 5 -18
-4 -26 -13 -29 -32 -4 -24 -4 -23 -6 5 -1 27 -5 32 -26 30 -14 0 -25 -5 -25
-11 0 -5 -5 -2 -11 7 -6 11 -16 15 -27 11 -32 -13 11 40 49 59 44 23 155 24
187 2z m-3308 -144 c-25 -20 -40 -24 -72 -21 -21 3 -24 -15 -5 -22 9 -4 9 -6
-1 -6 -7 -1 -15 6 -18 14 -4 8 -14 15 -25 15 -23 0 -69 -21 -69 -32 0 -4 -4
-8 -10 -8 -5 0 -10 7 -10 16 0 13 -3 14 -15 4 -8 -6 -19 -9 -25 -5 -7 4 -14
-2 -17 -14 -5 -21 -25 -31 -20 -10 1 6 -5 14 -13 16 -9 3 -11 1 -5 -4 6 -4 11
-19 13 -32 5 -32 -13 -19 -34 24 -16 35 -46 46 -60 24 -4 -8 -9 -7 -14 2 -6 9
-12 9 -25 -4 -9 -10 -21 -17 -26 -17 -5 0 -9 -9 -9 -19 0 -11 -5 -23 -11 -27
-8 -4 -9 0 -4 15 6 20 3 19 -44 -9 l-51 -29 -6 24 c-10 39 4 62 47 79 47 19
125 21 132 4 4 -10 8 -10 15 1 13 18 18 19 166 27 89 5 117 4 112 -4 -9 -15 0
-15 49 3 22 8 49 14 60 14 18 1 18 -1 -5 -19z"/>
<path d="M3056 8709 c-21 -5 -66 -23 -101 -39 -167 -80 -254 -231 -233 -409
18 -162 160 -310 337 -351 70 -16 212 -8 271 16 169 68 270 180 300 330 47
239 -182 467 -465 463 -38 -1 -87 -5 -109 -10z m190 -128 c47 -22 84 -64 84
-97 0 -25 -26 -44 -48 -36 -12 3 -12 0 -1 -19 6 -13 16 -27 22 -30 5 -4 7 -15
2 -25 -6 -16 -8 -16 -13 -4 -5 16 -22 30 -35 30 -4 0 -3 -8 2 -18 11 -21 4
-62 -11 -62 -6 0 -8 9 -5 21 9 34 -2 50 -32 43 -51 -11 -51 -11 -36 -41 l15
-28 -45 -3 c-52 -4 -94 20 -127 72 -18 29 -19 29 -15 6 2 -14 8 -34 12 -45 4
-11 -2 -6 -14 10 -17 24 -20 39 -16 79 7 58 14 72 53 109 57 55 138 70 208 38z
m-48 -372 c17 -6 37 -20 43 -31 10 -18 9 -20 -5 -15 -17 7 -22 -8 -6 -18 13
-8 13 -46 -1 -65 -9 -12 -10 -11 -6 8 6 27 -9 29 -23 2 -6 -12 -21 -20 -36
-20 -21 0 -24 -4 -19 -20 3 -11 2 -20 -3 -20 -5 0 -12 8 -14 18 -3 10 -15 18
-26 19 -26 2 -27 -1 -6 -21 14 -15 13 -16 -15 -16 -34 0 -101 58 -101 87 0 9
11 35 25 59 l25 42 67 1 c38 0 83 -4 101 -10z"/>
<path d="M2891 7220 c-56 -12 -63 -20 -20 -21 29 -1 25 -3 -22 -13 -80 -18
-189 -58 -183 -68 8 -12 -10 -10 -24 4 -9 9 -11 6 -7 -10 3 -16 -1 -22 -15
-22 -10 0 -22 -4 -25 -10 -3 -5 -13 -10 -21 -10 -10 0 -12 5 -8 13 5 8 3 8 -9
-2 -9 -7 -15 -17 -12 -21 7 -11 -32 -43 -44 -35 -7 3 -8 0 -5 -9 3 -9 -3 -19
-18 -26 -22 -11 -22 -10 -4 4 11 9 15 16 10 16 -14 0 -57 -47 -60 -64 -1 -8
-20 -40 -43 -73 -23 -32 -52 -89 -66 -128 -16 -47 -25 -62 -26 -45 -1 14 -10
-9 -21 -50 -14 -52 -20 -110 -21 -190 -1 -112 17 -225 33 -215 5 3 11 -9 15
-27 4 -18 13 -40 20 -48 8 -8 18 -28 24 -44 35 -89 159 -233 262 -302 165
-109 388 -151 582 -108 144 31 321 136 415 245 164 189 230 443 172 659 -30
114 -103 248 -177 327 -34 37 -65 74 -68 81 -3 7 -10 10 -16 6 -6 -3 -27 9
-47 29 -21 19 -49 37 -65 41 -15 4 -36 15 -46 25 -10 10 -24 18 -32 18 -15 0
-94 33 -144 59 -36 19 -217 28 -284 14z m-116 -134 c15 -23 15 -28 -4 -67 -12
-24 -21 -53 -21 -66 0 -14 -4 -21 -10 -18 -5 3 -12 -6 -16 -20 -9 -34 -30 -26
-27 11 l3 29 -12 -25 -12 -25 -4 28 c-4 30 -22 27 -22 -4 0 -11 -4 -18 -9 -14
-6 3 -14 -3 -20 -12 -17 -31 -22 -7 -12 55 12 73 32 107 80 132 48 26 68 25
86 -4z m635 -147 c56 -17 70 -19 103 -8 33 11 39 10 52 -7 8 -10 14 -28 12
-39 -1 -16 -8 -19 -29 -17 -17 2 -28 -1 -28 -9 0 -8 -3 -9 -14 0 -7 6 -21 9
-30 5 -9 -3 -22 -2 -29 3 -16 13 -57 14 -57 2 0 -15 -17 -10 -24 8 -4 9 -1 20
6 25 7 4 8 8 3 8 -6 0 -16 -5 -23 -12 -9 -9 -12 -8 -12 5 0 20 -16 23 -23 5
-3 -9 -7 -7 -12 5 -8 18 10 47 29 47 6 0 40 -9 76 -21z m-87 -79 c14 -11 30
-20 36 -20 6 0 11 -4 11 -10 0 -6 -9 -6 -24 0 -13 5 -27 6 -31 2 -4 -4 -11 -8
-16 -8 -5 -1 -13 -2 -19 -3 -17 -2 -11 -21 6 -21 13 0 11 -5 -8 -19 -28 -22
-54 -30 -115 -34 -40 -3 -43 -2 -43 21 0 35 36 89 68 101 47 17 107 13 135 -9z
m-696 -157 c23 -14 51 -44 63 -65 21 -37 21 -40 5 -58 -21 -23 -31 -18 -94 40
-33 30 -46 37 -52 28 -5 -7 -6 -22 -3 -33 11 -34 -9 -7 -22 31 -27 80 24 109
103 57z m1018 -23 c42 -29 65 -57 65 -78 0 -11 -25 -10 -36 1 -14 14 -25 7
-16 -9 14 -25 3 -54 -22 -54 -11 0 -31 -3 -43 -6 -18 -5 -23 -2 -23 14 0 12 5
24 10 27 6 3 10 13 10 22 0 11 -12 3 -37 -22 l-37 -38 -23 29 c-12 16 -23 34
-23 41 0 6 -5 13 -12 15 -20 7 -1 36 44 68 51 37 77 35 143 -10z m-451 -279
c54 -15 78 -28 112 -62 24 -23 41 -45 38 -48 -3 -3 -9 1 -14 9 -8 13 -10 12
-10 -2 0 -9 4 -18 10 -20 6 -2 6 -8 0 -18 -8 -13 -10 -13 -10 2 0 10 -10 23
-22 29 -17 9 -24 9 -33 -5 -12 -15 -45 -13 -45 3 0 4 -9 17 -20 29 -21 23 -50
30 -50 12 0 -5 10 -10 23 -10 18 0 19 -2 7 -10 -21 -13 -22 -13 -52 15 -23 21
-28 22 -39 9 -10 -12 -9 -13 5 -8 12 5 16 0 16 -16 0 -22 -1 -23 -20 -5 -11
10 -20 28 -20 39 0 17 -2 18 -10 6 -8 -12 -10 -10 -10 9 0 31 27 61 54 61 12
0 52 -9 90 -19z m-292 -12 c11 -6 17 -14 12 -18 -5 -3 -17 -19 -26 -36 -9 -16
-23 -30 -30 -31 -7 0 -19 -2 -25 -2 -7 -1 -13 -13 -13 -27 0 -22 -4 -25 -27
-20 -16 2 -30 -1 -35 -8 -5 -9 -11 -8 -20 5 -7 9 -20 18 -28 20 -31 6 -39 22
-25 49 18 34 41 53 50 39 8 -13 52 -13 61 1 6 11 61 38 77 39 5 0 18 -5 29
-11z m643 -149 c3 -5 -2 -10 -12 -11 -11 0 -13 -3 -5 -6 7 -3 19 1 27 7 12 10
15 10 15 -1 0 -11 2 -11 10 1 14 22 23 4 13 -26 -7 -20 -19 -31 -41 -36 -18
-5 -32 -13 -32 -18 0 -6 -18 -10 -40 -10 -22 0 -40 -4 -40 -8 0 -5 -6 -9 -12
-9 -7 0 -22 -4 -33 -8 -13 -4 -16 -4 -7 2 9 7 6 13 -13 23 -14 7 -25 17 -25
20 0 9 80 75 100 83 25 9 88 8 95 -3z m-687 -119 c3 -9 0 -12 -11 -8 -11 4
-13 0 -9 -15 3 -14 1 -19 -6 -14 -7 4 -12 3 -12 -3 0 -5 -7 -16 -15 -25 -9 -9
-11 -17 -5 -21 5 -3 10 -1 10 4 0 6 7 11 15 11 8 0 15 -9 15 -21 0 -11 -4 -18
-9 -15 -4 3 -17 -11 -27 -32 -10 -20 -25 -41 -31 -45 -7 -4 -13 -16 -13 -25 0
-28 -20 8 -20 38 l0 25 -20 -25 c-11 -14 -20 -21 -20 -16 0 5 -7 3 -15 -4 -13
-10 -12 -5 1 41 28 92 36 107 88 147 32 25 76 26 84 3z"/>
<path d="M7530 3363 c-88 -9 -289 -67 -277 -80 2 -2 17 1 32 7 15 6 30 8 33 6
3 -3 -8 -10 -24 -16 -115 -43 -263 -156 -317 -241 -16 -27 -34 -46 -40 -42 -6
4 -7 1 -2 -6 4 -8 -2 -21 -15 -33 -12 -11 -19 -26 -16 -34 3 -8 1 -14 -3 -14
-5 0 -12 -7 -15 -16 -4 -10 -2 -13 6 -7 7 4 3 -6 -10 -22 -17 -21 -21 -37 -17
-64 4 -27 3 -31 -4 -16 -14 32 -3 -196 14 -276 17 -80 67 -194 116 -265 146
-212 434 -344 683 -313 285 36 520 212 617 463 28 72 32 96 37 212 4 105 1
141 -11 179 -9 26 -14 52 -11 57 8 13 -23 93 -41 108 -8 7 -12 16 -9 21 3 5 1
9 -4 9 -5 0 -29 25 -52 55 -24 31 -71 79 -104 107 -36 30 -60 57 -58 66 3 14
2 14 -14 1 -16 -12 -17 -12 -11 3 11 30 -161 113 -283 136 -71 14 -156 20
-200 15z m-99 -148 c42 -15 129 -86 129 -107 0 -5 -15 2 -33 16 -19 15 -41 26
-50 26 -10 0 -17 4 -17 8 0 14 -69 42 -105 42 -26 0 -45 -11 -89 -51 -58 -53
-84 -108 -70 -152 5 -17 4 -19 -6 -10 -8 8 -11 32 -8 71 5 73 40 125 102 153
50 23 89 24 147 4z m2 -89 c18 -7 40 -22 50 -33 17 -20 17 -20 -9 -15 -22 4
-25 2 -20 -14 4 -15 -3 -23 -33 -38 -38 -18 -40 -18 -78 0 -47 23 -56 61 -22
93 26 24 66 27 112 7z m272 -196 c4 -6 14 -9 22 -8 9 2 18 -2 20 -9 3 -7 -3
-9 -17 -6 -16 4 -19 2 -13 -12 4 -13 3 -16 -5 -11 -17 10 -15 -6 3 -30 14 -18
14 -18 15 9 0 29 14 36 24 12 6 -16 -13 -55 -26 -55 -4 0 -13 9 -21 20 -8 11
-16 17 -19 14 -4 -3 -9 4 -13 15 -9 28 -25 27 -17 -1 6 -26 26 -48 41 -48 13
0 15 -17 2 -24 -10 -7 -47 32 -55 59 -6 21 -62 52 -73 41 -4 -4 3 -13 16 -22
28 -20 60 -54 73 -79 11 -19 10 -19 -16 -1 -26 17 -29 17 -47 0 -17 -16 -19
-16 -19 -1 0 10 7 17 16 17 9 0 14 7 12 18 -6 31 -33 19 -39 -18 -4 -19 -7
-26 -8 -15 -2 16 -5 15 -16 -10 -12 -25 -14 -26 -15 -9 0 11 7 35 16 53 20 41
12 65 -9 26 -9 -16 -16 -25 -17 -20 0 12 24 50 53 83 16 17 31 22 73 22 29 0
56 -5 59 -10z"/>
<path d="M3810 1885 c0 -11 46 -75 82 -113 82 -88 265 -242 384 -322 85 -58
202 -120 225 -120 10 0 24 -6 31 -13 7 -7 51 -21 98 -31 47 -10 90 -21 95 -26
6 -4 26 -10 45 -13 19 -3 58 -10 85 -16 145 -29 369 -22 634 19 113 18 311 95
467 183 35 20 39 25 26 36 -9 9 -16 10 -21 4 -17 -28 -230 -114 -376 -152
-221 -59 -481 -78 -668 -50 -255 37 -497 122 -677 237 -95 60 -308 241 -370
313 -33 38 -60 67 -60 64z"/>
<path d="M8605 7729 c-111 -64 -183 -226 -229 -514 -38 -231 -45 -314 -56
-675 -15 -489 -20 -585 -30 -588 -6 -2 -10 -8 -10 -13 0 -6 4 -8 9 -5 14 9 17
-32 11 -149 -6 -117 2 -145 53 -200 52 -55 49 -5 38 -832 -6 -422 -13 -835
-17 -918 -9 -218 11 -301 94 -388 45 -47 73 -62 149 -82 52 -14 63 -14 109 1
56 17 90 44 116 89 9 17 30 53 45 80 l28 50 -2 235 c-1 129 -11 408 -22 620
-45 829 -56 1079 -71 1685 -18 738 -32 1210 -39 1378 l-7 167 -31 31 c-34 35
-103 48 -138 28z m70 -121 c9 -31 33 -1122 36 -1709 3 -331 1 -369 -14 -393
-19 -29 -48 -39 -97 -34 -26 2 -34 8 -37 27 -4 30 -22 59 -85 141 l-48 62 0
271 c0 338 16 863 30 1011 36 367 117 636 192 636 10 0 20 -6 23 -12z m-12
-2419 c24 -6 41 -18 47 -32 4 -12 8 -164 7 -337 l-1 -315 -5 302 c-3 166 -10
305 -15 310 -4 4 -5 -68 -2 -162 4 -93 2 -204 -2 -245 -8 -66 -10 -51 -12 120
-1 107 -5 184 -8 170 l-5 -25 -7 25 c-3 14 -10 -144 -14 -350 -8 -431 -30
-901 -44 -945 l-9 -30 -7 26 c-4 14 -6 72 -4 127 2 56 0 102 -3 102 -4 0 -10
30 -13 68 -15 143 -20 142 -32 -3 -7 -77 -13 -188 -13 -247 -1 -59 -5 -109
-10 -112 -19 -12 -19 64 8 919 6 187 14 401 17 476 7 133 7 136 33 152 31 19
44 20 94 6z"/>
<path d="M1422 7630 c-15 -24 -35 -26 -52 -5 -7 8 -23 15 -36 15 -48 0 -51
-17 -65 -455 -18 -602 -18 -632 7 -680 11 -22 47 -62 80 -88 32 -27 58 -53 57
-58 -2 -5 2 -9 7 -9 6 0 10 -36 10 -87 0 -76 -3 -90 -22 -111 -19 -20 -23 -36
-24 -100 -1 -42 -5 -149 -8 -237 -4 -88 -11 -293 -16 -455 -6 -162 -17 -457
-25 -655 -44 -1087 -44 -1069 -2 -1156 26 -55 94 -136 110 -131 5 1 6 -2 2 -8
-9 -15 56 -51 87 -47 15 2 25 0 22 -5 -13 -21 119 11 162 39 16 10 25 12 21 5
-11 -17 21 -11 56 12 27 18 38 51 15 43 -7 -2 -13 -8 -13 -14 0 -16 -33 -44
-40 -33 -4 6 10 29 29 51 19 23 42 60 49 83 l14 41 -1 -42 c0 -23 -5 -41 -10
-40 -4 1 -11 -4 -14 -12 -3 -9 0 -11 8 -6 10 6 12 4 7 -9 -4 -10 -3 -15 3 -11
6 3 10 13 10 21 0 8 4 13 9 10 4 -3 7 8 5 24 -2 17 1 30 6 30 6 0 10 5 10 11
0 5 -5 7 -10 4 -6 -3 -10 -2 -10 4 0 5 10 13 21 16 21 7 22 10 15 174 -6 146
-10 402 -17 1138 -1 106 -6 190 -11 187 -9 -6 -9 5 -13 376 -4 327 -21 721
-37 818 -11 71 -10 74 14 100 13 15 29 34 36 43 15 20 45 174 38 197 -3 9 -8
107 -11 217 -5 183 -16 426 -31 662 -4 71 -10 99 -26 118 -22 28 -63 33 -72
10 -8 -21 -30 -19 -51 5 -10 11 -23 20 -30 20 -7 0 -20 -9 -30 -20 -10 -11
-23 -20 -29 -20 -7 0 -19 9 -29 20 -9 11 -21 20 -27 20 -5 0 -19 -9 -30 -20
-11 -11 -23 -20 -26 -20 -3 0 -17 9 -31 20 -14 11 -31 20 -37 20 -6 0 -17 -9
-24 -20z m-2 -565 l0 -305 28 0 29 0 6 173 c4 94 7 230 7 300 0 106 3 129 15
134 9 3 18 4 20 2 2 -3 7 -141 11 -307 l7 -303 31 3 31 3 3 290 c1 160 4 296
7 303 2 6 11 12 18 12 20 0 27 -84 28 -362 1 -252 0 -248 50 -248 18 0 19 11
19 305 0 267 2 305 15 305 9 0 17 -6 20 -12 8 -24 27 -766 20 -787 -3 -11 -40
-48 -81 -82 l-74 -60 0 -135 0 -134 -27 -11 c-55 -21 -58 -16 -63 134 l-5 138
-41 37 c-23 20 -62 53 -85 73 l-44 37 2 318 c2 176 6 356 9 402 5 72 8 82 25
82 18 0 19 -11 19 -305z m212 -1233 c8 -9 28 -602 27 -798 -1 -109 -4 -137
-10 -104 -4 25 -8 64 -8 87 -1 23 -6 45 -13 49 -8 5 -10 -42 -6 -192 5 -173 4
-182 -3 -74 -16 213 -24 172 -21 -97 4 -269 -3 -423 -19 -423 -5 0 -10 64 -10
143 -2 129 -3 117 -15 -128 -11 -242 -39 -543 -50 -554 -8 -9 -16 8 -24 56 -8
40 -9 32 -7 -48 2 -76 0 -96 -10 -92 -16 6 -17 222 -3 528 21 443 50 1170 56
1395 4 129 11 243 16 254 8 15 17 17 51 12 23 -4 45 -10 49 -14z"/>
<path d="M1482 2785 c-6 -14 -9 -32 -5 -42 5 -12 2 -15 -9 -10 -10 3 -26 -5
-42 -22 -34 -35 -33 -43 6 -39 29 3 34 0 44 -32 15 -45 28 -48 55 -11 16 22
31 31 51 31 15 0 28 3 28 6 0 17 -43 74 -56 74 -12 0 -20 22 -11 33 4 7 -26
37 -38 37 -6 0 -17 -11 -23 -25z"/>
<path d="M8696 2785 c-4 -14 -27 -44 -51 -66 -56 -51 -57 -66 -7 -61 34 3 39
1 52 -29 21 -47 37 -47 50 1 10 37 14 42 36 37 42 -8 58 40 20 63 -17 10 -19
10 -8 -1 19 -20 14 -31 -8 -17 -11 7 -18 20 -15 28 5 16 -35 70 -53 70 -5 0
-13 -11 -16 -25z"/>
<path d="M3213 1460 c-4 -15 -14 -20 -40 -20 -35 0 -35 -1 -30 -34 4 -28 2
-36 -19 -46 -31 -17 -31 -47 0 -61 13 -6 27 -20 29 -30 3 -11 12 -19 20 -19
24 0 28 28 7 43 -20 14 -17 27 7 27 7 0 13 -7 13 -15 0 -23 47 -19 60 5 7 13
21 20 41 20 17 0 29 3 27 8 -14 31 -92 142 -100 142 -5 0 -12 -9 -15 -20z"/>
<path d="M6973 1463 c-4 -10 -24 -40 -45 -66 -21 -27 -38 -53 -38 -58 0 -12
24 -11 36 1 7 7 17 0 32 -20 26 -34 58 -39 67 -10 3 11 11 20 16 20 13 0 11
-7 -7 -36 -17 -25 -14 -36 11 -40 8 -1 18 8 21 21 3 14 15 25 27 27 33 5 33
36 0 50 -15 7 -30 13 -32 15 -2 1 4 14 13 27 24 38 20 49 -15 44 -25 -4 -33 0
-42 19 -12 27 -35 30 -44 6z"/>
<path d="M3541 1256 c-6 -7 -8 -27 -5 -45 6 -26 4 -30 -10 -25 -17 6 -46 -11
-46 -28 0 -5 14 -14 30 -19 26 -10 35 -25 31 -51 -3 -18 38 -6 44 12 4 13 18
23 36 27 37 7 37 29 -1 51 -23 13 -29 23 -27 46 2 33 -33 55 -52 32z"/>
<path d="M6613 1264 c-7 -3 -13 -19 -13 -35 0 -22 -6 -32 -23 -38 -13 -5 -29
-16 -36 -25 -11 -14 -10 -17 10 -25 13 -5 27 -7 31 -5 3 2 15 -7 26 -21 27
-34 51 -32 59 5 4 23 11 30 29 30 12 0 26 5 29 11 8 12 -23 38 -45 39 -10 0
-15 10 -15 33 0 25 -4 32 -20 34 -11 1 -26 -1 -32 -3z"/>
</g>
</svg>
